<?xml version="1.0" encoding="UTF-8" standalone="no"?>
<!-- Created with Inkscape (http://www.inkscape.org/) -->

<svg
   width="200mm"
   height="219.286mm"
   viewBox="0 0 200 219.286"
   version="1.1"
   id="svg5"
   inkscape:version="1.1 (c68e22c387, 2021-05-23)"
   sodipodi:docname="Robux_2019_Logo_Black.svg"
   xmlns:inkscape="http://www.inkscape.org/namespaces/inkscape"
   xmlns:sodipodi="http://sodipodi.sourceforge.net/DTD/sodipodi-0.dtd"
   xmlns="http://www.w3.org/2000/svg"
   xmlns:svg="http://www.w3.org/2000/svg">
  <sodipodi:namedview
     id="namedview7"
     pagecolor="#ffffff"
     bordercolor="#999999"
     borderopacity="1"
     inkscape:pageshadow="0"
     inkscape:pageopacity="0"
     inkscape:pagecheckerboard="0"
     inkscape:document-units="mm"
     showgrid="false"
     inkscape:zoom="0.69397447"
     inkscape:cx="396.26818"
     inkscape:cy="561.25984"
     inkscape:window-width="1920"
     inkscape:window-height="1019"
     inkscape:window-x="-8"
     inkscape:window-y="-8"
     inkscape:window-maximized="1"
     inkscape:current-layer="layer1" />
  <defs
     id="defs2" />
  <g
     inkscape:label="Layer 1"
     inkscape:groupmode="layer"
     id="layer1">
    <path
       style="clip-rule:evenodd;fill:#393b3d;fill-rule:evenodd;stroke-width:14.2858"
       id="path15"
       d="M 19.999679,179.6433 C 7.1427722,172.49999 0,158.21441 0,143.92885 V 75.357301 C 0,61.071201 7.1427722,46.785642 19.999679,39.642862 L 78.571659,5.3570853 c 12.85689,-7.1427804 28.571121,-7.1427804 41.428561,0 L 178.57167,39.642862 C 192.85723,46.785642 200,61.071201 200,75.357301 v 68.571549 c 0,14.28556 -8.57144,28.57114 -19.99968,35.71445 l -58.57144,34.28576 c -12.85743,7.1428 -28.57166,7.1428 -41.4291,0 z m 94.285871,21.42834 57.14332,-34.28577 c 8.57145,-4.28708 14.28557,-14.28557 14.28557,-22.85702 V 76.785966 c 0,-10.000109 -5.71412,-20.000217 -14.28557,-24.28621 L 114.28555,18.213981 c -8.57144,-4.287072 -18.571007,-4.287072 -27.142448,0 l -58.57198,34.285775 c -8.571443,4.287073 -14.285561,14.286101 -14.285561,24.28621 v 67.142884 c 0,8.57145 5.714118,18.57155 14.285561,22.85702 l 57.143326,34.28577 c 8.571442,4.28706 19.999662,4.28706 28.571102,0 z M 85.714448,183.92876 42.857216,159.64308 C 34.285772,153.92896 28.571122,143.92885 28.571122,133.92875 V 86.785534 c 0,-11.428233 5.71465,-19.999677 14.286094,-25.714333 L 85.714448,35.356869 c 8.571442,-5.714117 19.999662,-5.714117 29.999772,0 l 41.42857,24.286208 c 8.57143,5.714117 14.28608,15.714224 14.28608,25.714332 v 48.571341 c 0,10.0001 -5.71465,20.00021 -14.28608,25.71433 l -42.85724,24.28568 c -8.57144,4.28708 -19.99966,4.28708 -28.571102,0 z M 128.57166,81.071418 H 71.428338 V 138.2142 h 57.143322 z"
       class="st2" />
  </g>
  <style
     id="style2"
     type="text/css">
	.st0{fill-rule:evenodd;clip-rule:evenodd;fill:url(#SVGID_1_);}
	.st1{fill:#606162;}
	.st2{fill-rule:evenodd;clip-rule:evenodd;fill:#393B3D;}
	.st3{fill-rule:evenodd;clip-rule:evenodd;fill:#FFFFFF;}
</style>
</svg>
